<mxfile host="Electron" agent="Mozilla/5.0 (Windows NT 10.0; Win64; x64) AppleWebKit/537.36 (KHTML, like Gecko) draw.io/28.0.6 Chrome/138.0.7204.100 Electron/37.2.3 Safari/537.36" version="28.0.6">
  <diagram name="總架構圖" id="c1f7dfbe-679a-4d16-9ac3-5c7d2c3e1c2d">
    <mxGraphModel dx="2253" dy="2010" grid="1" gridSize="10" guides="1" tooltips="1" connect="1" arrows="1" fold="1" page="1" pageScale="1" pageWidth="827" pageHeight="1169" math="0" shadow="0">
      <root>
        <mxCell id="0" />
        <mxCell id="1" parent="0" />
        <mxCell id="PxwXf5Qf3xLVLzIpMfqT-1" value="" style="rounded=1;whiteSpace=wrap;html=1;fillColor=#d5e8d4;strokeColor=#82b366;" parent="1" vertex="1">
          <mxGeometry x="610" y="30" width="650" height="700" as="geometry" />
        </mxCell>
        <mxCell id="PxwXf5Qf3xLVLzIpMfqT-22" value="" style="rounded=1;whiteSpace=wrap;html=1;fillColor=#ffe6cc;strokeColor=#d79b00;" parent="1" vertex="1">
          <mxGeometry x="670" y="340" width="540" height="310" as="geometry" />
        </mxCell>
        <mxCell id="PxwXf5Qf3xLVLzIpMfqT-42" style="edgeStyle=orthogonalEdgeStyle;rounded=0;orthogonalLoop=1;jettySize=auto;html=1;entryX=0.5;entryY=0;entryDx=0;entryDy=0;" parent="1" source="data_source" target="preprocess" edge="1">
          <mxGeometry relative="1" as="geometry" />
        </mxCell>
        <mxCell id="data_source" value="&lt;font color=&quot;#000000&quot;&gt;data&lt;/font&gt;" style="rounded=1;whiteSpace=wrap;html=1;fillColor=#d2e7fa;strokeColor=#185494;" parent="1" vertex="1">
          <mxGeometry x="-5" y="270" width="160" height="80" as="geometry" />
        </mxCell>
        <mxCell id="preprocess" value="&lt;font color=&quot;#000000&quot;&gt;資料處理&lt;/font&gt;" style="rounded=1;whiteSpace=wrap;html=1;fillColor=#e1f7e7;strokeColor=#3a915d;" parent="1" vertex="1">
          <mxGeometry y="450" width="150" height="80" as="geometry" />
        </mxCell>
        <mxCell id="fvHEkW2aEtkUICCScZZz-5" style="edgeStyle=orthogonalEdgeStyle;rounded=0;orthogonalLoop=1;jettySize=auto;html=1;entryX=0;entryY=0.5;entryDx=0;entryDy=0;" parent="1" source="embedding" target="vectordb" edge="1">
          <mxGeometry relative="1" as="geometry" />
        </mxCell>
        <mxCell id="embedding" value="&lt;font style=&quot;color: rgb(0, 0, 0);&quot;&gt;Embedding&amp;nbsp;&lt;/font&gt;" style="rounded=1;whiteSpace=wrap;html=1;fillColor=#e9ecf3;strokeColor=#777bbb;" parent="1" vertex="1">
          <mxGeometry x="200" y="460" width="160" height="50" as="geometry" />
        </mxCell>
        <mxCell id="fvHEkW2aEtkUICCScZZz-4" style="edgeStyle=orthogonalEdgeStyle;rounded=0;orthogonalLoop=1;jettySize=auto;html=1;endArrow=classic;endFill=1;startArrow=classic;startFill=1;" parent="1" source="vectordb" target="PxwXf5Qf3xLVLzIpMfqT-22" edge="1">
          <mxGeometry relative="1" as="geometry">
            <Array as="points">
              <mxPoint x="640" y="485" />
              <mxPoint x="640" y="485" />
            </Array>
          </mxGeometry>
        </mxCell>
        <mxCell id="vectordb" value="&lt;font style=&quot;color: rgb(0, 0, 0);&quot;&gt;具有RAG功能的向量知識庫&lt;/font&gt;" style="rounded=1;whiteSpace=wrap;html=1;fillColor=#f2e8d8;strokeColor=#b68b32;" parent="1" vertex="1">
          <mxGeometry x="414" y="460" width="160" height="50" as="geometry" />
        </mxCell>
        <mxCell id="user_input" value="&lt;font style=&quot;color: rgb(0, 0, 0);&quot;&gt;用戶/醫師提問&lt;/font&gt;" style="ellipse;whiteSpace=wrap;html=1;fillColor=#fff2cc;strokeColor=#bf9000;" parent="1" vertex="1">
          <mxGeometry x="780" y="-110" width="160" height="100" as="geometry" />
        </mxCell>
        <mxCell id="PxwXf5Qf3xLVLzIpMfqT-34" style="edgeStyle=orthogonalEdgeStyle;rounded=0;orthogonalLoop=1;jettySize=auto;html=1;entryX=0.5;entryY=0;entryDx=0;entryDy=0;" parent="1" source="PxwXf5Qf3xLVLzIpMfqT-2" target="PxwXf5Qf3xLVLzIpMfqT-3" edge="1">
          <mxGeometry relative="1" as="geometry" />
        </mxCell>
        <mxCell id="PxwXf5Qf3xLVLzIpMfqT-2" value="進行問題特徵抽取" style="rounded=1;whiteSpace=wrap;html=1;fillColor=#dae8fc;strokeColor=#6c8ebf;" parent="1" vertex="1">
          <mxGeometry x="790" y="60" width="120" height="40" as="geometry" />
        </mxCell>
        <mxCell id="PxwXf5Qf3xLVLzIpMfqT-33" style="edgeStyle=orthogonalEdgeStyle;rounded=0;orthogonalLoop=1;jettySize=auto;html=1;entryX=0.5;entryY=0;entryDx=0;entryDy=0;" parent="1" source="PxwXf5Qf3xLVLzIpMfqT-3" target="PxwXf5Qf3xLVLzIpMfqT-4" edge="1">
          <mxGeometry relative="1" as="geometry" />
        </mxCell>
        <mxCell id="PxwXf5Qf3xLVLzIpMfqT-3" value="特徵資訊檢查" style="rounded=1;whiteSpace=wrap;html=1;fillColor=#dae8fc;strokeColor=#6c8ebf;" parent="1" vertex="1">
          <mxGeometry x="790" y="130" width="120" height="40" as="geometry" />
        </mxCell>
        <mxCell id="PxwXf5Qf3xLVLzIpMfqT-32" style="edgeStyle=orthogonalEdgeStyle;rounded=0;orthogonalLoop=1;jettySize=auto;html=1;entryX=0.5;entryY=0;entryDx=0;entryDy=0;" parent="1" source="PxwXf5Qf3xLVLzIpMfqT-4" target="PxwXf5Qf3xLVLzIpMfqT-5" edge="1">
          <mxGeometry relative="1" as="geometry" />
        </mxCell>
        <mxCell id="PxwXf5Qf3xLVLzIpMfqT-4" value="任務拆解與參數設定" style="rounded=1;whiteSpace=wrap;html=1;fillColor=#dae8fc;strokeColor=#6c8ebf;" parent="1" vertex="1">
          <mxGeometry x="790" y="210" width="120" height="40" as="geometry" />
        </mxCell>
        <mxCell id="PxwXf5Qf3xLVLzIpMfqT-31" style="edgeStyle=orthogonalEdgeStyle;rounded=0;orthogonalLoop=1;jettySize=auto;html=1;entryX=0.5;entryY=0;entryDx=0;entryDy=0;" parent="1" source="PxwXf5Qf3xLVLzIpMfqT-5" target="PxwXf5Qf3xLVLzIpMfqT-6" edge="1">
          <mxGeometry relative="1" as="geometry" />
        </mxCell>
        <mxCell id="PxwXf5Qf3xLVLzIpMfqT-5" value="多層屬性檢索" style="rounded=1;whiteSpace=wrap;html=1;fillColor=#dae8fc;strokeColor=#6c8ebf;" parent="1" vertex="1">
          <mxGeometry x="790" y="280" width="120" height="40" as="geometry" />
        </mxCell>
        <mxCell id="PxwXf5Qf3xLVLzIpMfqT-23" style="edgeStyle=orthogonalEdgeStyle;rounded=0;orthogonalLoop=1;jettySize=auto;html=1;entryX=0.5;entryY=0;entryDx=0;entryDy=0;" parent="1" source="PxwXf5Qf3xLVLzIpMfqT-6" target="PxwXf5Qf3xLVLzIpMfqT-7" edge="1">
          <mxGeometry relative="1" as="geometry" />
        </mxCell>
        <mxCell id="PxwXf5Qf3xLVLzIpMfqT-6" value="單個高相關案例回傳" style="rounded=1;whiteSpace=wrap;html=1;fillColor=#dae8fc;strokeColor=#6c8ebf;" parent="1" vertex="1">
          <mxGeometry x="790" y="365" width="120" height="40" as="geometry" />
        </mxCell>
        <mxCell id="PxwXf5Qf3xLVLzIpMfqT-27" style="edgeStyle=orthogonalEdgeStyle;rounded=0;orthogonalLoop=1;jettySize=auto;html=1;entryX=0.5;entryY=0;entryDx=0;entryDy=0;" parent="1" source="PxwXf5Qf3xLVLzIpMfqT-7" target="PxwXf5Qf3xLVLzIpMfqT-8" edge="1">
          <mxGeometry relative="1" as="geometry" />
        </mxCell>
        <mxCell id="PxwXf5Qf3xLVLzIpMfqT-7" value="針對回傳的高相關案例進行微調、加權、融合" style="rounded=1;whiteSpace=wrap;html=1;fillColor=#dae8fc;strokeColor=#6c8ebf;" parent="1" vertex="1">
          <mxGeometry x="790" y="440" width="120" height="50" as="geometry" />
        </mxCell>
        <mxCell id="PxwXf5Qf3xLVLzIpMfqT-28" style="edgeStyle=orthogonalEdgeStyle;rounded=0;orthogonalLoop=1;jettySize=auto;html=1;entryX=0.5;entryY=0;entryDx=0;entryDy=0;" parent="1" source="PxwXf5Qf3xLVLzIpMfqT-8" target="PxwXf5Qf3xLVLzIpMfqT-9" edge="1">
          <mxGeometry relative="1" as="geometry" />
        </mxCell>
        <mxCell id="PxwXf5Qf3xLVLzIpMfqT-8" value="&lt;span style=&quot;color: rgba(0, 0, 0, 0); font-family: monospace; font-size: 0px; text-align: start; text-wrap-mode: nowrap;&quot;&gt;%3CmxGraphModel%3E%3Croot%3E%3CmxCell%20id%3D%220%22%2F%3E%3CmxCell%20id%3D%221%22%20parent%3D%220%22%2F%3E%3CmxCell%20id%3D%222%22%20value%3D%22%E5%A4%9A%E7%B5%84%E9%AB%98%E7%9B%B8%E9%97%9C%E6%A1%88%E4%BE%8B%E5%9B%9E%E5%82%B3%22%20style%3D%22rounded%3D1%3BwhiteSpace%3Dwrap%3Bhtml%3D1%3BfillColor%3D%23dae8fc%3BstrokeColor%3D%236c8ebf%3B%22%20vertex%3D%221%22%20parent%3D%221%22%3E%3CmxGeometry%20x%3D%22620%22%20y%3D%22380%22%20width%3D%22120%22%20height%3D%2240%22%20as%3D%22geometry%22%2F%3E%3C%2FmxCell%3E%3C%2Froot%3E%3C%2FmxGraphModel%3E&lt;/span&gt;決策應用與監控" style="rounded=1;whiteSpace=wrap;html=1;fillColor=#dae8fc;strokeColor=#6c8ebf;" parent="1" vertex="1">
          <mxGeometry x="790" y="520" width="120" height="40" as="geometry" />
        </mxCell>
        <mxCell id="PxwXf5Qf3xLVLzIpMfqT-9" value="&lt;div style=&quot;text-align: start;&quot;&gt;用戶回饋&lt;/div&gt;" style="rounded=1;whiteSpace=wrap;html=1;fillColor=#dae8fc;strokeColor=#6c8ebf;" parent="1" vertex="1">
          <mxGeometry x="790" y="585" width="120" height="40" as="geometry" />
        </mxCell>
        <mxCell id="PxwXf5Qf3xLVLzIpMfqT-38" style="edgeStyle=orthogonalEdgeStyle;rounded=0;orthogonalLoop=1;jettySize=auto;html=1;entryX=0.5;entryY=0;entryDx=0;entryDy=0;" parent="1" source="PxwXf5Qf3xLVLzIpMfqT-10" target="PxwXf5Qf3xLVLzIpMfqT-12" edge="1">
          <mxGeometry relative="1" as="geometry" />
        </mxCell>
        <mxCell id="PxwXf5Qf3xLVLzIpMfqT-10" value="&lt;div style=&quot;text-align: start;&quot;&gt;適合&lt;/div&gt;" style="rounded=1;whiteSpace=wrap;html=1;fillColor=#dae8fc;strokeColor=#6c8ebf;" parent="1" vertex="1">
          <mxGeometry x="707" y="665" width="120" height="40" as="geometry" />
        </mxCell>
        <mxCell id="PxwXf5Qf3xLVLzIpMfqT-16" style="edgeStyle=orthogonalEdgeStyle;rounded=0;orthogonalLoop=1;jettySize=auto;html=1;entryX=0.5;entryY=1;entryDx=0;entryDy=0;" parent="1" source="PxwXf5Qf3xLVLzIpMfqT-11" target="PxwXf5Qf3xLVLzIpMfqT-15" edge="1">
          <mxGeometry relative="1" as="geometry" />
        </mxCell>
        <mxCell id="PxwXf5Qf3xLVLzIpMfqT-11" value="&lt;div style=&quot;text-align: start;&quot;&gt;不適合&lt;/div&gt;" style="rounded=1;whiteSpace=wrap;html=1;fillColor=#dae8fc;strokeColor=#6c8ebf;" parent="1" vertex="1">
          <mxGeometry x="890" y="665" width="120" height="40" as="geometry" />
        </mxCell>
        <mxCell id="PxwXf5Qf3xLVLzIpMfqT-41" style="edgeStyle=orthogonalEdgeStyle;rounded=0;orthogonalLoop=1;jettySize=auto;html=1;entryX=1;entryY=0.5;entryDx=0;entryDy=0;" parent="1" source="PxwXf5Qf3xLVLzIpMfqT-12" target="PxwXf5Qf3xLVLzIpMfqT-39" edge="1">
          <mxGeometry relative="1" as="geometry" />
        </mxCell>
        <mxCell id="PxwXf5Qf3xLVLzIpMfqT-12" value="&lt;div style=&quot;text-align: start;&quot;&gt;決策處理並標註&lt;/div&gt;" style="rounded=1;whiteSpace=wrap;html=1;fillColor=#dae8fc;strokeColor=#6c8ebf;" parent="1" vertex="1">
          <mxGeometry x="707" y="750" width="120" height="40" as="geometry" />
        </mxCell>
        <mxCell id="PxwXf5Qf3xLVLzIpMfqT-20" style="edgeStyle=orthogonalEdgeStyle;rounded=0;orthogonalLoop=1;jettySize=auto;html=1;entryX=0.5;entryY=1;entryDx=0;entryDy=0;" parent="1" source="PxwXf5Qf3xLVLzIpMfqT-15" target="PxwXf5Qf3xLVLzIpMfqT-19" edge="1">
          <mxGeometry relative="1" as="geometry" />
        </mxCell>
        <mxCell id="PxwXf5Qf3xLVLzIpMfqT-15" value="&lt;div style=&quot;text-align: start;&quot;&gt;&lt;span style=&quot;text-align: center;&quot;&gt;再次進行spiral CBR&amp;nbsp;model互動引導&lt;/span&gt;&lt;/div&gt;" style="rounded=1;whiteSpace=wrap;html=1;fillColor=#dae8fc;strokeColor=#6c8ebf;" parent="1" vertex="1">
          <mxGeometry x="1050" y="530" width="150" height="40" as="geometry" />
        </mxCell>
        <mxCell id="PxwXf5Qf3xLVLzIpMfqT-21" style="edgeStyle=orthogonalEdgeStyle;rounded=0;orthogonalLoop=1;jettySize=auto;html=1;entryX=1;entryY=0.5;entryDx=0;entryDy=0;" parent="1" source="PxwXf5Qf3xLVLzIpMfqT-19" target="PxwXf5Qf3xLVLzIpMfqT-6" edge="1">
          <mxGeometry relative="1" as="geometry">
            <Array as="points">
              <mxPoint x="1125" y="385" />
            </Array>
          </mxGeometry>
        </mxCell>
        <mxCell id="PxwXf5Qf3xLVLzIpMfqT-19" value="去除當前使用案例並檢索" style="rounded=1;whiteSpace=wrap;html=1;fillColor=#dae8fc;strokeColor=#6c8ebf;" parent="1" vertex="1">
          <mxGeometry x="1065" y="405" width="120" height="40" as="geometry" />
        </mxCell>
        <mxCell id="PxwXf5Qf3xLVLzIpMfqT-29" value="" style="endArrow=classic;html=1;rounded=0;exitX=0.25;exitY=1;exitDx=0;exitDy=0;" parent="1" source="PxwXf5Qf3xLVLzIpMfqT-9" target="PxwXf5Qf3xLVLzIpMfqT-10" edge="1">
          <mxGeometry width="50" height="50" relative="1" as="geometry">
            <mxPoint x="690" y="575" as="sourcePoint" />
            <mxPoint x="740" y="525" as="targetPoint" />
          </mxGeometry>
        </mxCell>
        <mxCell id="PxwXf5Qf3xLVLzIpMfqT-30" value="" style="endArrow=classic;html=1;rounded=0;exitX=0.75;exitY=1;exitDx=0;exitDy=0;" parent="1" source="PxwXf5Qf3xLVLzIpMfqT-9" target="PxwXf5Qf3xLVLzIpMfqT-11" edge="1">
          <mxGeometry width="50" height="50" relative="1" as="geometry">
            <mxPoint x="875" y="650" as="sourcePoint" />
            <mxPoint x="840" y="690" as="targetPoint" />
          </mxGeometry>
        </mxCell>
        <mxCell id="PxwXf5Qf3xLVLzIpMfqT-35" value="S-CBR機制" style="text;whiteSpace=wrap;html=1;" parent="1" vertex="1">
          <mxGeometry x="995" y="320" width="70" height="40" as="geometry" />
        </mxCell>
        <mxCell id="PxwXf5Qf3xLVLzIpMfqT-36" value="具有Spiral CBR model 的 Agentive AI 的流程" style="text;whiteSpace=wrap;html=1;" parent="1" vertex="1">
          <mxGeometry x="980" y="10" width="270" height="40" as="geometry" />
        </mxCell>
        <mxCell id="PxwXf5Qf3xLVLzIpMfqT-37" style="edgeStyle=orthogonalEdgeStyle;rounded=0;orthogonalLoop=1;jettySize=auto;html=1;entryX=0.386;entryY=0;entryDx=0;entryDy=0;entryPerimeter=0;" parent="1" source="user_input" target="PxwXf5Qf3xLVLzIpMfqT-1" edge="1">
          <mxGeometry relative="1" as="geometry" />
        </mxCell>
        <mxCell id="PxwXf5Qf3xLVLzIpMfqT-44" style="edgeStyle=orthogonalEdgeStyle;rounded=0;orthogonalLoop=1;jettySize=auto;html=1;entryX=0.5;entryY=1;entryDx=0;entryDy=0;" parent="1" source="PxwXf5Qf3xLVLzIpMfqT-39" target="embedding" edge="1">
          <mxGeometry relative="1" as="geometry">
            <Array as="points">
              <mxPoint x="280" y="770" />
            </Array>
          </mxGeometry>
        </mxCell>
        <mxCell id="PxwXf5Qf3xLVLzIpMfqT-39" value="&lt;font style=&quot;color: rgb(0, 0, 0);&quot;&gt;新增反饋案例知識庫&lt;/font&gt;" style="rounded=1;whiteSpace=wrap;html=1;fillColor=#d9ead3;strokeColor=#274e13;" parent="1" vertex="1">
          <mxGeometry x="395" y="740" width="170" height="60" as="geometry" />
        </mxCell>
        <mxCell id="PxwXf5Qf3xLVLzIpMfqT-43" style="edgeStyle=orthogonalEdgeStyle;rounded=0;orthogonalLoop=1;jettySize=auto;html=1;entryX=0.007;entryY=0.617;entryDx=0;entryDy=0;entryPerimeter=0;" parent="1" source="preprocess" target="embedding" edge="1">
          <mxGeometry relative="1" as="geometry" />
        </mxCell>
      </root>
    </mxGraphModel>
  </diagram>
</mxfile>
